<svg width="720" height="520" viewBox="0 0 720 520" fill="none" xmlns="http://www.w3.org/2000/svg">
  <rect width="720" height="520" rx="32" fill="#07111F"/>
  <circle cx="554" cy="112" r="94" fill="#15314F"/>
  <circle cx="554" cy="112" r="58" fill="#1E4A73"/>
  <path d="M554 72L589 86V124C589 162 563 185 554 190C545 185 519 162 519 124V86L554 72Z" fill="#D9F4FF"/>
  <path d="M541 126L551 136L571 114" stroke="#0A7A52" stroke-width="12" stroke-linecap="round" stroke-linejoin="round"/>
  <rect x="58" y="74" width="326" height="168" rx="24" fill="#0E2034"/>
  <rect x="86" y="110" width="134" height="18" rx="9" fill="#DAE8F5"/>
  <rect x="86" y="146" width="256" height="14" rx="7" fill="#4E6A88"/>
  <rect x="86" y="176" width="214" height="14" rx="7" fill="#35506B"/>
  <rect x="86" y="206" width="170" height="14" rx="7" fill="#35506B"/>
  <rect x="58" y="282" width="604" height="170" rx="26" fill="#0B1A2A"/>
  <rect x="92" y="322" width="204" height="18" rx="9" fill="#E8F0F7"/>
  <rect x="92" y="360" width="266" height="12" rx="6" fill="#39546F"/>
  <rect x="92" y="387" width="226" height="12" rx="6" fill="#39546F"/>
  <rect x="416" y="320" width="198" height="92" rx="18" fill="#112840"/>
  <path d="M463 383L498 345L525 365L568 322" stroke="#FFB347" stroke-width="12" stroke-linecap="round" stroke-linejoin="round"/>
  <circle cx="463" cy="383" r="8" fill="#FFB347"/>
  <circle cx="498" cy="345" r="8" fill="#FFB347"/>
  <circle cx="525" cy="365" r="8" fill="#FFB347"/>
  <circle cx="568" cy="322" r="8" fill="#FFB347"/>
</svg>
